# File created by Blade
# Date/Time:  Wed Jan 21 16:02:01 2015
# Frame Rate: 120.000 fps
#------------------------------------------------------
:FULLY-SPECIFIED
:DEGREES
2152
root 18.438623 35.787828 -12.818969 -178.995503 -1.827263 -180.194915
Spine -0.504316 4.504533 -3.939718
Head 2.993012 -6.699395 6.144507
LeftShoulder -4.305574 -30.243548 6.799762
LeftArm -3.703173 14.135578 -30.284236
LeftForeArm 5.288432 -0.000000 2.686605
LeftHand -3.786642 -0.000000 -11.321968
LeftHandThumb1 -26.253704 0.000000 33.147579
RightShoulder -8.977392 -12.311009 -0.064194
RightArm 16.604808 14.419619 41.791002
RightForeArm -32.262942 -0.000000 13.837372
RightHand -1.895145 -0.000000 3.675214
RightHandThumb1 -24.326973 -0.000000 -32.862282
LeftUpLeg -5.202916 5.384655 -2.717743
LeftLeg 5.199862 -0.000000 -0.000000
LeftFoot -23.604369 25.081566 -15.576611
LeftToeBase 20.797655 -0.000000 -0.000000
RightUpLeg -10.405806 -8.519364 7.265184
RightLeg 10.102406 -0.000000 -0.000000
RightFoot -28.945106 -24.468899 22.305207
RightToeBase 11.498355 -0.000000 -0.000000
2153
root 18.395064 35.784631 -12.815654 -179.135392 -1.473967 -180.279966
Spine -0.405662 4.649344 -4.166309
Head 2.974594 -6.751820 6.531436
LeftShoulder -4.181202 -30.251358 7.316167
LeftArm -3.416941 13.928219 -29.077269
LeftForeArm 5.038778 -0.000000 2.377708
LeftHand -3.830367 -0.000000 -11.403567
LeftHandThumb1 -26.253704 0.000000 33.147579
RightShoulder -9.056625 -12.278209 -0.095995
RightArm 16.718210 14.848127 40.634952
RightForeArm -32.398804 -0.000000 13.219949
RightHand -1.758090 -0.000000 3.325222
RightHandThumb1 -24.326973 -0.000000 -32.862282
LeftUpLeg -4.963895 5.471730 -2.833596
LeftLeg 5.055053 -0.000000 -0.000000
LeftFoot -23.500326 25.381771 -15.588847
LeftToeBase 20.700937 -0.000000 -0.000000
RightUpLeg -10.905044 -8.919136 7.142395
RightLeg 11.343110 -0.000000 -0.000000
RightFoot -29.380511 -24.089512 22.771297
RightToeBase 11.311963 -0.000000 -0.000000
2154
root 18.352940 35.777215 -12.814748 -179.308599 -1.149112 -180.379003
Spine -0.268576 4.794180 -4.398344
Head 2.942738 -6.706296 6.884316
LeftShoulder -4.058225 -30.347801 7.790175
LeftArm -3.106544 13.892991 -27.820873
LeftForeArm 4.625303 -0.000000 2.041369
LeftHand -3.834587 0.000000 -11.434897
LeftHandThumb1 -26.253704 0.000000 33.147579
RightShoulder -9.133869 -12.075039 -0.174355
RightArm 16.684972 14.988580 39.386855
RightForeArm -32.215386 -0.000000 12.596269
RightHand -1.761754 -0.000000 3.169504
RightHandThumb1 -24.326973 -0.000000 -32.862282
LeftUpLeg -4.669543 5.462642 -2.942248
LeftLeg 4.880650 -0.000000 -0.000000
LeftFoot -23.427702 25.658956 -15.609121
LeftToeBase 20.671629 -0.000000 -0.000000
RightUpLeg -11.396596 -9.460985 6.992551
RightLeg 12.629377 -0.000000 -0.000000
RightFoot -29.789296 -23.763528 23.145123
RightToeBase 11.311038 -0.000000 -0.000000
2155
root 18.304419 35.768976 -12.812141 -179.483192 -0.798162 -180.493880
Spine -0.131752 4.961712 -4.595277
Head 2.931569 -6.704777 7.147222
LeftShoulder -3.934834 -30.504859 8.209718
LeftArm -2.806869 13.821002 -26.548229
LeftForeArm 4.249358 0.000000 1.664016
LeftHand -3.841479 -0.000000 -11.452986
LeftHandThumb1 -26.253704 0.000000 33.147579
RightShoulder -9.124199 -11.909228 -0.318533
RightArm 16.577830 15.335639 38.214767
RightForeArm -32.244577 0.000000 11.994616
RightHand -1.599328 -0.000000 3.124472
RightHandThumb1 -24.326973 -0.000000 -32.862282
LeftUpLeg -4.316119 5.339378 -3.072217
LeftLeg 4.590013 -0.000000 -0.000000
LeftFoot -23.356007 26.098149 -15.644953
LeftToeBase 20.869439 -0.000000 -0.000000
RightUpLeg -11.952628 -10.113787 6.816005
RightLeg 14.018793 -0.000000 -0.000000
RightFoot -30.123510 -23.475067 23.466821
RightToeBase 11.255044 -0.000000 -0.000000
2156
root 18.261709 35.759089 -12.807277 -179.640592 -0.503761 -180.609742
Spine -0.005855 5.071755 -4.778635
Head 2.921288 -6.705684 7.368840
LeftShoulder -3.849826 -30.705937 8.584130
LeftArm -2.460362 13.872407 -25.220571
LeftForeArm 3.751666 -0.000000 1.292869
LeftHand -3.847712 -0.000000 -11.452644
LeftHandThumb1 -26.253704 0.000000 33.147579
RightShoulder -9.189914 -11.780858 -0.473065
RightArm 16.577840 15.719075 37.108958
RightForeArm -32.317454 -0.000000 11.395537
RightHand -1.417384 -0.000000 3.105572
RightHandThumb1 -24.326973 -0.000000 -32.862282
LeftUpLeg -4.043704 5.346443 -3.198474
LeftLeg 4.385396 -0.000000 -0.000000
LeftFoot -23.243046 26.427851 -15.554684
LeftToeBase 21.180163 -0.000000 -0.000000
RightUpLeg -12.521853 -10.785685 6.629986
RightLeg 15.399420 -0.000000 -0.000000
RightFoot -30.404219 -23.231611 23.627899
RightToeBase 11.525267 -0.000000 -0.000000
2157
root 18.214405 35.750129 -12.812944 -179.844632 -0.132195 -180.755788
Spine 0.122412 5.273516 -4.970840
Head 2.970581 -6.750562 7.515608
LeftShoulder -3.813063 -30.922872 8.984735
LeftArm -2.072873 13.822745 -23.982488
LeftForeArm 3.250800 -0.000000 0.869938
LeftHand -3.901578 -0.000000 -11.174228
LeftHandThumb1 -26.253704 0.000000 33.147579
RightShoulder -9.190718 -11.494938 -0.681935
RightArm 16.396224 15.990627 35.984537
RightForeArm -32.344018 -0.000000 10.795758
RightHand -1.342945 0.000000 3.191564
RightHandThumb1 -24.326973 -0.000000 -32.862282
LeftUpLeg -3.650105 5.376157 -3.360779
LeftLeg 4.071489 -0.000000 -0.000000
LeftFoot -23.102251 26.821473 -15.644435
LeftToeBase 21.093009 -0.000000 -0.000000
RightUpLeg -13.001071 -11.308357 6.354920
RightLeg 16.729341 -0.000000 -0.000000
RightFoot -30.632508 -23.160450 23.512732
RightToeBase 11.715420 -0.000000 -0.000000
